<svg width="250" height="250" viewBox="0 0 250 250" fill="none" xmlns="http://www.w3.org/2000/svg">
<rect width="250" height="250" fill="black"/>
<path d="M77.9852 119.2H111.685V131.8H77.9852V119.2ZM79.1852 148H117.285V161H63.0852V91H115.985V104H79.1852V148ZM163.675 162.2C158.275 162.2 153.242 161.333 148.575 159.6C143.975 157.8 139.975 155.267 136.575 152C133.175 148.733 130.508 144.9 128.575 140.5C126.708 136.1 125.775 131.267 125.775 126C125.775 120.733 126.708 115.9 128.575 111.5C130.508 107.1 133.175 103.267 136.575 100C140.042 96.7333 144.075 94.2333 148.675 92.5C153.275 90.7 158.308 89.8 163.775 89.8C169.842 89.8 175.308 90.8667 180.175 93C185.108 95.0667 189.242 98.1333 192.575 102.2L182.175 111.8C179.775 109.067 177.108 107.033 174.175 105.7C171.242 104.3 168.042 103.6 164.575 103.6C161.308 103.6 158.308 104.133 155.575 105.2C152.842 106.267 150.475 107.8 148.475 109.8C146.475 111.8 144.908 114.167 143.775 116.9C142.708 119.633 142.175 122.667 142.175 126C142.175 129.333 142.708 132.367 143.775 135.1C144.908 137.833 146.475 140.2 148.475 142.2C150.475 144.2 152.842 145.733 155.575 146.8C158.308 147.867 161.308 148.4 164.575 148.4C168.042 148.4 171.242 147.733 174.175 146.4C177.108 145 179.775 142.9 182.175 140.1L192.575 149.7C189.242 153.767 185.108 156.867 180.175 159C175.308 161.133 169.808 162.2 163.675 162.2Z" fill="white"/>
</svg>
